<svg xmlns="http://www.w3.org/2000/svg" width="184.558" height="43.662" viewBox="0 0.01 184.558 43.662"><g data-name="Group 26"><path d="M0 6.436c0-.96.285-1.67.854-2.134.57-.46 1.368-.692 2.4-.692.64 0 1.227.08 1.761.239.534.159.89.275 1.068.345v14.67c.71-.853 1.779-1.654 3.2-2.4 1.42-.745 3.272-1.12 5.546-1.12 1.635 0 3.14.231 4.507.692 1.368.463 2.552 1.146 3.547 2.053.995.907 1.76 2.035 2.295 3.388.534 1.353.8 2.935.8 4.748v16.696h-6.08V28.04c0-2.348-.489-4.124-1.466-5.333-.98-1.209-2.658-1.813-5.04-1.813-2.384 0-4.24.702-5.47 2.106-1.226 1.405-1.839 3.262-1.839 5.574v14.348H0V6.436Z" fill="#5b4ec4" fill-rule="evenodd" data-name="Path 11"/><path d="M44.74 15.399c2.063 0 3.99.355 5.789 1.065 1.796.713 3.35 1.698 4.668 2.96a13.643 13.643 0 0 1 3.093 4.481c.746 1.726 1.121 3.6 1.121 5.628s-.373 3.849-1.12 5.574a13.642 13.642 0 0 1-3.094 4.482c-1.315 1.262-2.872 2.26-4.668 2.987-1.796.728-3.726 1.094-5.789 1.094-2.063 0-3.992-.366-5.788-1.094-1.796-.728-3.353-1.725-4.668-2.987a13.642 13.642 0 0 1-3.094-4.482c-.745-1.725-1.12-3.582-1.12-5.574 0-1.993.372-3.902 1.12-5.628a13.642 13.642 0 0 1 3.094-4.48c1.315-1.263 2.872-2.25 4.668-2.96 1.796-.711 3.725-1.066 5.788-1.066Zm0 22.885c1.21 0 2.328-.222 3.36-.668a7.555 7.555 0 0 0 2.64-1.866 8.892 8.892 0 0 0 1.708-2.774c.409-1.048.613-2.196.613-3.44a9.846 9.846 0 0 0-.613-3.494 8.436 8.436 0 0 0-1.707-2.802 7.779 7.779 0 0 0-2.64-1.838c-1.033-.444-2.152-.668-3.36-.668-1.21 0-2.374.222-3.389.668a7.887 7.887 0 0 0-2.615 1.838c-.73.784-1.3 1.716-1.707 2.802-.411 1.085-.613 2.249-.613 3.493 0 1.245.204 2.393.613 3.441a8.8 8.8 0 0 0 1.707 2.774 7.598 7.598 0 0 0 2.615 1.866c1.013.446 2.141.668 3.388.668Z" fill="#5b4ec4" fill-rule="evenodd" data-name="Path 12"/><path d="M85.213 6.436c0-.96.275-1.67.827-2.134.551-.46 1.342-.692 2.372-.692.64 0 1.227.08 1.761.239.534.159.89.275 1.066.345v24.06c0 2.596-.365 4.853-1.093 6.775-.731 1.92-1.734 3.522-3.016 4.802a12.38 12.38 0 0 1-4.534 2.881c-1.743.64-3.645.96-5.708.96s-4.028-.355-5.789-1.068c-1.76-.71-3.28-1.688-4.562-2.935-1.28-1.244-2.284-2.738-3.015-4.48-.73-1.744-1.093-3.628-1.093-5.656 0-2.028.345-3.955 1.04-5.68.693-1.726 1.655-3.22 2.882-4.482a12.973 12.973 0 0 1 4.32-2.934c1.655-.693 3.459-1.04 5.416-1.04 2.063 0 3.874.4 5.441 1.198 1.564.801 2.791 1.769 3.68 2.907V6.436Zm0 23.097c0-1.21-.204-2.348-.612-3.413-.41-1.066-.97-1.99-1.68-2.774a7.605 7.605 0 0 0-2.587-1.841c-1.013-.444-2.126-.668-3.335-.668-1.21 0-2.366.222-3.36.668a8.102 8.102 0 0 0-2.588 1.813c-.73.766-1.29 1.68-1.68 2.749-.393 1.068-.587 2.221-.587 3.466 0 1.244.194 2.393.587 3.44.39 1.051.95 1.956 1.68 2.721a8.051 8.051 0 0 0 2.587 1.814c.995.446 2.116.668 3.36.668 1.245 0 2.32-.214 3.336-.64a7.58 7.58 0 0 0 2.587-1.761c.71-.746 1.272-1.655 1.68-2.72.408-1.066.612-2.24.612-3.522Z" fill="#5b4ec4" fill-rule="evenodd" data-name="Path 13"/><path d="M120.202 32.563c-.158.005-.549.02-1.12.01.38 0 .755-.005 1.12-.01Z" fill="#5b4ec4" fill-rule="evenodd" data-name="Path 14"/><path d="M96.927 5.663c0-.96.284-1.67.854-2.134.569-.46 1.368-.693 2.4-.693.64 0 1.227.08 1.761.24.534.158.89.274 1.066.347v38.725h-6.081V5.663Z" fill="#5b4ec4" fill-rule="evenodd" data-name="Path 15"/><path d="M132.573 39.657a.61.61 0 0 1-.236.816c-.23.128-.504.28-.824.448-.605.32-1.36.623-2.267.907a25.42 25.42 0 0 1-3.146.746c-1.192.214-2.5.32-3.92.32-1.993 0-3.85-.303-5.575-.907-1.725-.605-3.237-1.501-4.534-2.693-1.297-1.191-2.32-2.647-3.068-4.373-.746-1.725-1.121-3.708-1.121-5.947 0-2.24.365-4.081 1.093-5.842.728-1.76 1.743-3.272 3.04-4.534 1.298-1.262 2.827-2.24 4.588-2.935 1.76-.693 3.688-1.04 5.789-1.04 1.848 0 3.483.24 4.907.72 1.42.481 2.622 1.121 3.6 1.92.977.8 1.715 1.733 2.213 2.8a7.97 7.97 0 0 1 .746 3.414c0 1.207-.232 2.373-.693 3.388-.463 1.013-1.28 1.884-2.453 2.615-1.174.73-2.756 1.3-4.748 1.708-1.993.408-4.517.612-7.575.612-.713 0-1.378-.008-2-.028a94.814 94.814 0 0 1-2-.08c.284 1.813 1.163 3.28 2.64 4.4 1.476 1.121 3.582 1.68 6.32 1.68.924 0 1.778-.07 2.56-.214a14.826 14.826 0 0 0 3.705-1.174l.455-.219a.61.61 0 0 1 .807.267l1.692 3.225ZM114.122 27.53c.818.036 1.6.053 2.347.053h2.24c1.954 0 3.539-.123 4.748-.373 1.21-.249 2.151-.569 2.826-.96.675-.39 1.121-.836 1.333-1.332.214-.499.32-1.013.32-1.547 0-1.35-.544-2.365-1.627-3.04-1.086-.675-2.429-1.013-4.028-1.013-1.315 0-2.471.232-3.466.693-.996.464-1.832 1.076-2.507 1.841a8.47 8.47 0 0 0-1.574 2.64 9.485 9.485 0 0 0-.612 3.04Z" fill="#37ae8d" fill-rule="evenodd" data-name="Path 16"/><g data-name="Group 25"><path d="M184.556 38.438v3.14c0 .608-.449 1.097-.998 1.097-1.085 0-2.179 0-3.274.005h-23.611c-2.89.01-5.81.04-8.69.103-1.996.035-3.983-.045-5.978-.045-1.487 0-3.7-.101-4.522-1.585-1.126-2.033.64-4.564 1.975-6.008.138-.143.277-.287.415-.425.32-.313.643-.638.983-.978l4.383-4.4a435.635 435.635 0 0 0 4.26-4.348c.576-.597 1.106-1.147 1.587-1.66.647-.688.206-1.887-.688-1.887h-10.394c-1.063 0-1.818-.232-2.252-.693-.435-.463-.657-1.141-.657-2.03 0-.602.083-1.172.247-1.706a7.61 7.61 0 0 1 .123-.395c.139-.436.514-.726.935-.726h19.041c.935 0 1.675.242 2.224.72.55.485.822 1.22.822 2.215 0 .678-.144 1.305-.431 1.897-.292.587-.844 1.32-1.65 2.21-.514.568-1.156 1.254-1.912 2.055-.76.8-1.572 1.645-2.446 2.534a864.084 864.084 0 0 1-5.426 5.469c-.869.869-1.69 1.68-2.466 2.425-.693.663-.262 1.922.652 1.922h10.809c.85 0 1.746.106 2.605-.027.97-.151 1.693-.703 2.4-1.35 1.22-1.116 1.978-1.948 3.124-3.106 1.162-1.174 2.34-2.35 3.504-3.522a435.553 435.553 0 0 0 4.26-4.348c.57-.597 1.106-1.146 1.587-1.66.647-.688.206-1.887-.693-1.887h-7.915c-1.063 0-1.813-.231-2.252-.692-.435-.464-.652-1.142-.652-2.03 0-.603.078-1.172.242-1.706.04-.144.083-.277.123-.396.139-.435.514-.725.935-.725h16.565c.94 0 1.68.242 2.232.72.549.484.82 1.22.82 2.215a4.21 4.21 0 0 1-.435 1.896c-.287.587-.839 1.32-1.645 2.21-.519.569-1.156 1.254-1.912 2.055a313.62 313.62 0 0 1-2.446 2.534 854.438 854.438 0 0 1-5.426 5.469c-.869.87-1.695 1.68-2.466 2.426-.692.662-.267 1.917.653 1.917h12.736c.549 0 .997.494.997 1.1Z" fill="#37ae8d" fill-rule="evenodd" data-name="Path 17"/><path d="M173.565 12.431c-.84 0-1.65-.458-2.06-1.257-1.998-3.894-6.283-6.524-10.66-6.542h-.046c-4.363 0-8.645 2.59-10.668 6.457a2.313 2.313 0 0 1-4.098-2.144c2.8-5.35 8.728-8.935 14.769-8.935h.063c6.06.025 11.99 3.663 14.756 9.056a2.313 2.313 0 0 1-2.056 3.368Z" fill="#37ae8d" fill-rule="evenodd" data-name="Path 18"/></g></g></svg>