<svg width="297" height="151" viewBox="0 0 297 151" fill="none" xmlns="http://www.w3.org/2000/svg">
<g clip-path="url(#clip0_89_259)">
<path d="M186.88 50.8111V73.5212C187.252 73.3668 187.45 73.3227 187.603 73.2125C194.639 68.913 202.048 68.6705 209.489 71.647C215.188 73.9291 218.805 78.4711 220.821 84.2037C223.55 91.9538 223.671 99.77 220.459 107.41C217.906 113.495 212.887 116.924 206.837 118.974C200.809 121.014 194.617 121.036 188.381 120.386C183.088 119.834 177.981 118.445 172.918 116.891C172.107 116.648 171.8 116.262 171.8 115.38C171.822 94.2248 171.822 73.0692 171.822 51.9135C171.822 51.2631 171.745 50.6567 172.742 50.6567C177.236 50.6898 181.74 50.6788 186.233 50.6788C186.398 50.6788 186.551 50.7449 186.88 50.8111ZM186.913 96.3305C186.913 99.8252 186.946 103.32 186.891 106.815C186.88 107.73 187.132 108.292 188.063 108.38C190.847 108.645 193.675 109.262 196.425 109.041C200.743 108.689 204.294 106.594 205.851 102.317C207.692 97.2234 207.615 92.042 205.248 87.0811C203.264 82.9139 199.428 80.8193 194.979 81.3154C192.338 81.613 189.981 82.6824 187.8 84.1927C187.132 84.6557 186.891 85.1739 186.902 85.9676C186.935 89.4182 186.924 92.8798 186.924 96.3305H186.913Z" fill="black"/>
<path d="M128.148 98.4471C128.455 101.28 129.529 103.562 131.338 105.47C135.151 109.504 139.952 110.574 145.289 110.067C150.462 109.571 155.306 108.016 159.953 105.734C160.314 105.558 160.698 105.403 161.191 105.183C161.224 105.668 161.268 106.032 161.279 106.385C161.279 108.325 161.279 110.265 161.279 112.205C161.279 115.667 161.301 115.722 158.144 117.056C149.169 120.848 139.875 122.061 130.406 119.492C119.743 116.593 113.255 108.115 112.663 97.058C112.356 91.3805 113.211 85.9455 116.236 81.0287C120.499 74.1054 127.042 70.9414 134.856 69.9823C139.119 69.4531 143.349 69.6516 147.426 71.1068C155.394 73.94 159.832 79.8491 161.728 87.8968C162.451 90.9836 162.747 96.2973 162.32 98.4581H128.137L128.148 98.4471ZM127.82 90.7411H148.226C148.204 86.8164 147.13 83.4099 143.809 81.2712C140.346 79.0333 136.565 79.1325 133.036 81.1279C129.453 83.1674 127.962 86.5408 127.82 90.7301V90.7411Z" fill="black"/>
<path d="M69.9868 109.306C69.8005 109.681 69.7018 109.846 69.6251 110.034C68.0798 114.124 65.0551 116.417 60.8138 117.067C54.3696 118.059 48.2214 117.023 42.5444 113.804C37.7113 111.059 34.9057 106.704 33.4591 101.413C32.7906 98.9432 32.6919 98.877 30.1493 99.3511C20.2968 101.17 10.6416 103.739 1.07402 106.693C0.843875 106.759 0.602768 106.804 0 106.947C0.471255 106.55 0.657565 106.34 0.865793 106.219C10.1594 100.74 20.2201 97.51 30.8727 96.0438C32.2316 95.8564 32.8673 95.1618 32.9111 93.6295C33.0097 90.5096 33.0865 87.4007 33.1522 84.2808C33.1851 82.4949 33.3714 82.2965 35.092 82.2965C38.0292 82.2965 40.9772 82.2965 43.9144 82.2965C45.3281 82.2965 45.5363 82.5611 45.6459 83.9832C45.8761 87.1361 46.161 90.2781 46.4241 93.42C46.5227 94.5335 47.1255 94.9965 48.2433 95.0626C51.2681 95.25 54.271 95.5256 57.2958 95.7792C57.6355 95.8012 57.9643 95.9005 58.3041 95.9666L58.2821 96.2753C54.6546 96.4848 51.0161 96.6832 47.3885 96.8927C47.52 100.376 50.4681 104.147 53.7011 105.073C58.2821 106.385 62.5125 105.514 66.414 102.835C67.2141 102.284 67.2579 101.71 66.7428 100.928C65.4825 98.9873 64.2769 97.0139 63.0276 95.0516C62.1727 93.6956 62.2275 93.3098 63.5098 92.3176C67.9593 88.8559 73.0225 88.9772 77.231 92.5932C78.0639 93.3098 78.1954 93.9492 77.5378 94.8532C76.2227 96.6611 74.9843 98.5132 73.702 100.343C72.891 101.501 72.9349 101.975 74.0308 102.769C77.231 105.084 80.7928 106.087 84.7382 105.591C88.1794 105.161 90.5028 103.232 91.9385 100.145C93.5495 96.6942 94.218 93.0121 94.4153 89.2418C94.503 87.6874 94.4372 86.1219 94.4811 84.5675C94.5359 82.8146 95.1715 82.1973 96.8812 82.2083C99.8183 82.2303 102.766 82.2744 105.703 82.3075C106.361 82.3075 107.019 82.3075 107.03 83.2335C107.117 88.2386 107.61 93.2877 107.194 98.2486C106.372 108.325 99.1717 115.546 89.1658 116.935C85.8779 117.398 82.5791 117.673 79.2475 117.067C76.0254 116.483 73.5596 114.906 71.806 112.15C71.2471 111.268 70.6553 110.397 69.9429 109.317L69.9868 109.306ZM73.5705 95.9666C71.291 96.7163 69.0881 96.7934 66.688 95.8343C67.4223 98.0061 68.1566 99.8361 68.6607 101.743C69.1648 103.629 69.4388 105.569 69.8005 107.487L70.3813 107.542C70.2937 103.353 72.08 99.759 73.5705 95.9666Z" fill="black"/>
<path d="M254.379 81.5358C254.083 80.0365 254.225 78.9561 255.321 77.8647C261.853 71.3604 268.308 64.7789 274.785 58.2194C275.432 57.569 275.991 56.7422 277.273 57.2272C277.295 57.58 277.328 58.032 277.328 58.473C277.328 62.0118 277.383 65.5616 277.306 69.0894C277.284 70.3241 277.547 70.7651 278.884 70.732C283.257 70.6438 287.63 70.6989 292.002 70.6989H293.449V81.5138H277.415C277.383 82.0871 277.339 82.539 277.339 82.991C277.339 88.6796 277.295 94.3681 277.361 100.057C277.383 101.468 277.602 102.912 277.942 104.29C278.5 106.583 280.111 107.796 282.402 108.182C285.558 108.711 288.495 107.906 291.367 106.748C292.605 106.252 293.8 105.646 295.126 105.029C295.159 105.337 295.214 105.569 295.214 105.8C295.214 109.251 295.203 112.713 295.235 116.163C295.235 116.847 295.06 117.222 294.403 117.508C288.452 120.033 282.27 121.278 275.815 120.408C267.793 119.327 263.3 114.554 262.511 106.318C262.302 104.103 262.281 101.865 262.27 99.6267C262.237 94.0264 262.237 88.415 262.27 82.8147C262.27 81.8555 262.05 81.4697 261.009 81.5028C258.828 81.5799 256.647 81.5248 254.368 81.5248L254.379 81.5358Z" fill="black"/>
<path d="M48.3091 21.288C47.6734 23.085 47.0159 24.8819 46.4131 26.6899C45.9199 28.1672 45.0322 29.2916 43.6842 30.0193C43.1691 30.2949 42.6102 30.5264 42.0512 30.6587C38.7196 31.4083 36.9003 29.4791 37.9963 26.26C40.6375 18.4437 43.3883 10.6606 46.0405 2.84433C46.6652 0.970195 47.794 5.58449e-05 49.8215 0.0331288C52.386 0.077226 54.9505 -0.0550657 57.515 0.0110802C60.3863 0.0882503 61.1973 0.661515 61.8111 3.46169C62.918 8.47775 64.0577 13.4938 64.8139 18.565C66.3373 28.7956 66.1839 39.0592 65.0879 49.3228C65.0331 49.863 64.9564 50.4142 64.8468 50.9434C64.4742 52.8065 63.4988 53.7877 61.5919 53.8869C59.6192 53.9861 57.6355 53.9971 55.6738 53.8869C53.4819 53.7546 52.4298 52.597 52.1339 50.1717C51.6626 46.3242 51.2462 42.4767 50.8078 38.6182C50.205 33.2604 49.5913 27.9026 48.9886 22.5448C48.9447 22.1369 48.8351 21.74 48.7474 21.3431L48.3091 21.277V21.288ZM53.6025 10.4952C51.9805 12.9536 50.8188 15.3238 51.2462 18.3555C52.101 24.3969 52.6709 30.4823 53.3175 36.5567C53.723 40.3711 54.0518 44.1855 54.4135 47.9999C54.4902 48.7937 54.6546 49.5543 55.6848 49.5543C56.6601 49.5543 57.1204 48.9921 57.2191 48.066C57.241 47.8125 57.2629 47.5589 57.2519 47.3054C57.1752 45.5746 57.1643 43.8437 56.9999 42.135C56.1998 34.0872 55.3779 26.0395 54.534 18.0028C54.271 15.5002 53.9203 12.9977 53.6134 10.5062L53.6025 10.4952Z" fill="black"/>
<path d="M232.471 70.7981H247.409C247.431 71.2721 247.474 71.7131 247.474 72.1651C247.474 87.555 247.474 102.945 247.507 118.324C247.507 119.559 247.146 119.889 245.951 119.867C241.874 119.801 237.797 119.812 233.72 119.867C232.668 119.878 232.372 119.548 232.372 118.5C232.405 103.033 232.394 87.555 232.394 72.0879C232.394 71.68 232.449 71.2721 232.471 70.7981Z" fill="black"/>
<path d="M88.8151 39.6214C88.322 42.3003 87.8397 44.9792 87.3246 47.6581C87.0835 48.8928 86.8534 50.1386 86.5356 51.3623C86.1629 52.8175 85.2095 53.7876 83.6971 53.8207C81.3189 53.8758 78.9188 53.8207 76.5406 53.6664C75.3131 53.5892 74.4912 52.7513 74.2282 51.4946C74.0638 50.7118 73.8884 49.9181 73.8555 49.1243C73.5925 42.179 73.0774 35.2337 74.0309 28.3104C74.3158 26.2709 74.6994 24.2314 75.2583 22.2581C76.146 19.1382 78.1626 17.694 81.3846 17.6499C83.982 17.6169 86.5904 17.6169 89.1987 17.6499C91.1933 17.672 92.366 18.5098 92.9139 20.4281C95.0839 28.123 97.2429 35.818 99.3471 43.535C100.016 45.9604 99.2485 47.5809 97.4402 48.077C94.5579 48.8598 91.9934 47.7132 91.1933 45.3209C90.5577 43.4137 89.8891 41.5176 89.2316 39.6214H88.7932H88.8151ZM84.3437 31.7941C84.1245 32.1138 83.982 32.2682 83.9053 32.4446C81.4942 37.8685 80.6065 43.6122 80.5517 49.4992C80.5517 50.348 81.0778 50.6677 81.8559 50.6788C83.2587 50.7008 83.9711 49.9181 84.0916 48.2203C84.2998 45.2438 84.267 42.2121 85.5711 39.456C86.8972 36.6558 86.152 34.2525 84.3437 31.7831V31.7941Z" fill="black"/>
<path d="M247.365 63.2795H232.394V58.5722C232.394 56.4224 232.427 54.2837 232.372 52.134C232.351 51.23 232.592 50.8662 233.567 50.8772C237.808 50.9213 242.05 50.8992 246.291 50.8882C246.97 50.8882 247.518 50.8882 247.496 51.8584C247.453 55.4743 247.474 59.1013 247.474 62.7173C247.474 62.8716 247.409 63.037 247.365 63.2795Z" fill="black"/>
<path d="M69.4059 114.223C69.4059 116.428 69.4059 118.511 69.4059 120.595C69.4059 122.447 69.4169 124.299 69.4498 126.151C69.4717 127.199 68.9785 127.595 67.9703 127.485C65.4715 127.199 62.9618 126.934 60.4631 126.636C58.9287 126.449 58.578 126.052 58.5342 124.542C58.4904 123.241 58.3808 121.929 58.4137 120.628C58.4465 119.184 59.0383 118.511 60.3754 118.522C63.9153 118.578 66.6661 117.034 68.9566 114.465C69.0224 114.388 69.1539 114.355 69.4059 114.212V114.223Z" fill="black"/>
<path d="M71.0499 114.212C73.3514 117.222 76.42 118.379 79.8832 118.721C81.5709 118.886 81.7463 119.14 81.7353 120.882C81.7243 122.138 81.7353 123.406 81.7353 124.663C81.7463 125.832 81.1983 126.427 80.0366 126.57C77.7132 126.857 75.3898 127.221 73.0664 127.54C71.5102 127.75 70.7321 127.188 70.7321 125.721C70.7321 122.072 70.8088 118.412 70.8526 114.763C70.8526 114.653 70.9293 114.543 71.0499 114.212Z" fill="black"/>
<path d="M252.297 144.859C253.656 146.811 254.96 148.696 256.308 150.636C253.732 151.243 253.228 151.066 251.957 149.181C251.343 148.277 250.718 147.373 250.105 146.469C249.348 145.356 248.307 145.036 246.894 145.367V150.735H244.362V137.098C247.222 137.264 250.105 137.275 252.943 137.65C254.467 137.848 255.146 139.27 255.245 140.758C255.354 142.236 254.894 143.515 253.535 144.297C253.108 144.54 252.625 144.705 252.297 144.848V144.859ZM249.173 139.502V139.458C248.8 139.458 248.417 139.502 248.044 139.458C247.047 139.325 246.729 139.711 246.784 140.725C246.926 143.151 246.346 142.985 249.118 142.985C249.699 142.985 250.291 142.93 250.872 142.875C251.847 142.776 252.406 142.258 252.428 141.244C252.45 140.218 251.836 139.689 250.927 139.535C250.357 139.436 249.754 139.513 249.173 139.513V139.502Z" fill="black"/>
<path d="M213.27 144.011C213.27 147.241 211.922 149.523 209.445 150.515C206.903 151.54 203.648 150.89 201.861 148.994C199.428 146.436 199.582 141.067 202.157 138.598C204.579 136.283 209.182 136.426 211.539 138.895C212.722 140.141 213.281 141.762 213.281 144.011H213.27ZM210.508 143.955C210.508 141.1 209.27 139.391 207.067 139.226C204.81 139.061 203.242 140.56 202.935 143.184C202.596 146.061 203.845 148.255 206.004 148.619C206.125 148.641 206.256 148.652 206.377 148.652C208.93 148.828 210.508 147.031 210.519 143.955H210.508Z" fill="black"/>
<path d="M90.8206 63.5331C93.9112 67.3034 94.2399 71.8895 91.9165 75.8583C89.9877 79.1656 86.1081 81.183 82.5901 80.5987C85.319 74.9432 88.026 69.3319 90.8096 63.5331H90.8206Z" fill="black"/>
<path d="M87.763 150.724C87.4013 150.746 87.1493 150.746 86.9082 150.79C85.5382 151.044 84.6505 150.581 84.4094 149.126C84.2121 147.935 83.5107 147.406 82.2833 147.626C81.9984 147.682 81.6915 147.671 81.4065 147.626C79.379 147.34 77.768 147.66 77.4502 150.14C77.4173 150.394 76.8913 150.702 76.5625 150.768C75.9597 150.868 75.335 150.79 74.5679 150.79C74.7213 150.283 74.809 149.92 74.9295 149.589C76.4091 145.752 77.9105 141.916 79.3571 138.057C79.6092 137.374 80.0037 137.109 80.6723 137.242C81.4065 137.396 82.36 136.746 82.8203 137.936C84.4204 142.048 86.0752 146.138 87.6972 150.239C87.7411 150.349 87.7301 150.471 87.752 150.735L87.763 150.724ZM81.2421 140.758H80.8914C80.3544 142.258 79.8065 143.746 79.2366 145.333H82.9518C82.3381 143.702 81.7901 142.225 81.2421 140.758Z" fill="black"/>
<path d="M126.987 145.896L129.365 146.678C128.718 149.545 126.833 150.989 123.874 150.978C120.827 150.978 118.482 149.148 117.989 146.16C117.77 144.815 117.748 143.371 118 142.037C118.789 137.815 123.326 135.731 127.074 137.76C128.302 138.421 129.025 139.424 129.376 140.913C128.532 141.122 127.743 141.321 126.954 141.519L127.096 141.199C126.296 140.604 125.573 139.766 124.674 139.446C122.997 138.851 121.244 139.777 120.893 141.585C120.597 143.107 120.63 144.749 120.871 146.293C121.101 147.781 122.274 148.575 123.6 148.674C124.97 148.773 125.935 148.134 126.625 146.656C126.735 146.436 126.833 146.215 126.976 145.907L126.987 145.896Z" fill="black"/>
<path d="M44.6486 142.754C44.9774 144.948 44.9664 144.948 43.0266 144.981C41.7882 145.003 40.1443 144.661 39.421 145.311C38.7963 145.874 39.2018 147.593 39.1579 148.806C39.136 149.379 39.1579 149.953 39.1579 150.493C38.884 150.592 38.7744 150.658 38.6538 150.669C36.5715 150.901 36.5167 150.846 36.5167 148.784C36.5167 145.455 36.5167 142.136 36.5167 138.807C36.5167 138.311 36.5715 137.826 36.6044 137.286H45.613V139.458C43.9253 139.458 42.2156 139.513 40.5169 139.436C39.5086 139.391 39.0922 139.645 39.136 140.747C39.2018 142.743 39.136 142.743 41.0868 142.743H44.6486V142.754Z" fill="black"/>
<path d="M291.005 142.445C291.641 141.365 292.277 140.295 292.901 139.226C293.767 137.738 295.137 137.12 297 137.385C295.992 138.995 295.126 140.626 294.019 142.07C292.518 144.044 291.926 146.149 292.101 148.63C292.276 151.077 292.134 151.088 289.482 150.625C289.482 149.457 289.405 148.255 289.504 147.053C289.624 145.631 289.186 144.452 288.408 143.294C287.115 141.387 285.931 139.413 284.682 137.44C287.213 136.867 287.531 136.999 288.78 139.094C289.405 140.141 290.041 141.177 290.676 142.225C290.709 142.291 290.808 142.313 290.994 142.434L291.005 142.445Z" fill="black"/>
<path d="M166.342 150.603C166.046 150.713 165.969 150.757 165.893 150.757C164.457 150.868 163.734 150.206 163.734 148.773V139.513H159.953C159.448 137.429 159.547 137.286 161.41 137.286H170.298V139.48C169.367 139.48 168.424 139.524 167.482 139.469C166.583 139.402 166.331 139.777 166.342 140.637C166.386 143.503 166.353 146.37 166.353 149.236V150.614L166.342 150.603Z" fill="black"/>
<path d="M56.0135 60.0604C55.7614 61.692 54.8189 62.4307 53.6244 63.0149C50.3585 64.6135 48.5392 67.1821 48.5392 70.9083C48.5392 71.206 48.5721 71.4926 48.6159 71.7903C48.6378 71.9446 48.7145 72.099 48.8789 72.6061C50.0078 69.5634 50.5557 66.4545 53.4052 64.867L53.8326 65.1096C52.0681 68.7366 50.3037 72.3746 48.4406 76.2C46.435 72.6612 46.1062 69.2767 47.8378 65.7931C49.4927 62.4527 52.1668 60.5565 56.0135 60.0604Z" fill="black"/>
<path d="M88.4972 61.4936C84.1902 58.5281 77.6803 59.6856 74.8637 64.0733C73.4171 66.3223 71.4773 67.1711 68.9128 67.0278C67.7401 66.9617 66.9511 66.5648 66.4469 65.4624C65.5154 63.4339 63.8934 62.0338 61.9426 61.0416C61.5809 60.8542 60.7699 61.0416 60.496 61.3393C60.0685 61.8023 59.7507 62.5189 60.6165 63.037C60.8467 63.1693 60.9782 63.4339 61.3398 63.8528C60.1124 63.6544 59.2466 63.6764 58.7315 64.7899C56.715 69.1004 54.6327 73.3668 52.5833 77.6553C51.9147 79.0554 52.1668 79.6286 53.5696 80.1909C59.3452 82.4949 65.9428 79.0774 67.4113 72.992C67.6196 72.1321 67.6525 71.2501 67.784 70.3792C67.9155 69.4863 68.3867 69.0232 69.3402 69.1445C69.669 69.1886 70.0087 69.1996 70.3485 69.1886C72.376 69.1224 72.4417 69.1555 72.6171 71.2281C72.9678 75.3953 75.1268 78.2726 78.8311 80.0475C80.1023 80.6649 80.7928 80.4554 81.4065 79.1987C83.9601 73.9401 86.4917 68.6705 89.0343 63.4008C89.4288 62.585 89.2973 62.0118 88.5192 61.4716L88.4972 61.4936ZM74.9405 72.7384C73.4061 69.7949 74.9953 65.8593 78.4146 63.467C81.2969 61.4606 85.4286 61.6149 87.6205 64.0513C79.9599 62.0448 76.4638 65.9034 74.9405 72.7384Z" fill="black"/>
</g>
<defs>
<clipPath id="clip0_89_259">
<rect width="297" height="151" fill="white"/>
</clipPath>
</defs>
</svg>
